<?xml version="1.0"?><svg version="1.2" baseProfile="tiny-ps" viewBox="0 0 300 300" xmlns="http://www.w3.org/2000/svg" xmlns:xlink="http://www.w3.org/1999/xlink"><title>glitchrealm-bimi</title><g><g fill="#fefb04" transform="matrix(.1 0 0 -.1 0 300)"><path d="M0 1500V0h3000v3000H0V1500z"/></g><g fill="#a9f34f" transform="matrix(.1 0 0 -.1 0 300)"><path d="M0 1500V0h3000v3000H0V1500zm1450 420v-40H920v80h530v-40zm630 0v-40h-330v80h330v-40zm-1170-95v-45h-80v90h80v-45zm1430-295v-40h-70v80h70v-40zm-1090-80v-40h-180v80h180v-40zm658-17 3-43h-161v91l78-3 77-3 3-42zm352 7v-40h-80v80h80v-40zm-270-100v-40h-70v80h70v-40zm90-90v-40h-80v80h80v-40zm84-66c3-9 6-29 6-45v-29h-90v90h78l6-16zm-1459-34v-35l-32-3-33-3v82l33-3 32-3v-35zm95-90v-40h-90v80h90v-40zm930 0v-40h-190v80h190v-40zm610 0v-40h-170v80h170v-40zm-890-100v-40H810v80h640v-40z"/></g><g fill="#04fcfa" transform="matrix(.1 0 0 -.1 0 300)"><path d="M0 1500V0h3000v3000H0V1500zm1454 454c3-9 6-29 6-45v-29l-272-2-273-3-3-47-3-48h-90l3 48 3 47 43 3 42 3v89h538l6-16zm626-31v-48h-340v95h340v-47zm268-390 3-42-43-3-43-3-3-48-3-48-42 3-42 3v90l43 3 42 3v38c0 47 6 53 50 49l35-3 3-42zm-1088-80v-48l-100 3-100 3v38c0 21 3 41 7 44 3 4 48 7 100 7h93v-47zm644 31 16-6v-88h79l3-42 3-43 37-3 37-3 3-47 3-47 42-3 42-3 3-42 3-42 88-3 87-3v-89h-180v90h-89l-3 48-3 47-37 3-38 3v89h-79l-3 43-3 42-87 3-88 3v43c0 23 3 46 7 49 8 9 136 9 157 1zM708 1153l3-43h99v-100l323-2 322-3v-80l-322-3-322-2-3 47-3 48-47 3-48 3v89h-80v91l38-3 37-3 3-42zm1030-90 3-43h-201v91l98-3 97-3 3-42z"/></g><g fill="#fb1174" transform="matrix(.1 0 0 -.1 0 300)"><path d="M0 1500V0h3000v3000H0V1500zm1450 583c0-54 3-122 6-150l7-53-274-2-274-3-3-47-3-48h-89v-480h90v-90h351l-3 98-3 97-99 3-99 3 7 61c3 33 6 94 6 134v74h378l4-372c2-205 2-376 0-380l-3-8H811l-3 48-3 47-47 3-48 3v89h-80l2 438 3 437 43 3 42 3v78l43 3 42 3 3 53 3 52h639v-97zm722 45 3-53 43-3 42-3v-78l43-3 42-3 2-247 2-247-42-3-42-3v-180l40-5 40-5 3-137 3-138h-181v90h-89l-3 48-3 47-37 3-38 3v89h-79l-3 43-3 42h-180l1-183 1-182h-197v1160h629l3-52zm-431-262-12-14 3-84 3-83 172-3 173-2 5 23c4 13 3 57-2 98l-8 74-161 3-161 2-12-14z"/></g><g fill="#712556" transform="matrix(.1 0 0 -.1 0 300)"><path d="M0 1500V0h3000v3000H0V1500zm1452 540c2-76 2-166 0-200l-4-60H910v-92l-45 4-45 3v-395h90v-90h350v110h-188l-4 58c-3 31-3 112 0 180l5 122h375l4-368c2-202 1-393 0-425l-4-57-316 2-317 3-3 43-3 42h-89v99l-42 3-43 3v960l43 3 42 3v78l43 3 42 3 3 53 3 52h636l5-140zm720 88 3-53 43-3 42-3v-78l43-3 42-3 2-215c2-118 0-253-4-298l-6-84-39 4-39 4 3-46 3-45 40-5 40-5 3-85c2-47 0-131-3-187l-7-103h-157l-3 48-3 47-42 3-43 3v89h-79l-3 48-3 47-42 3-43 3v89h-179l-4 43c-3 23-5-39-4-138 0-99 0-204-1-233l-2-53-92 3-93 3-3 628-2 627h629l3-52zm-438-353 1-90 169-3 170-2 8 12c4 7 8 30 8 51v37h-349l-4 43-4 42 1-90z"/></g><g fill="#025561" transform="matrix(.1 0 0 -.1 0 300)"><path d="M0 1500V0h3000v3000H0V1500zm1454 484 8-196-10-10-9-9-261 3-261 3-3-45-3-45h-95v-385h90v-90h350v100h-203l6 137c4 75 7 158 7 185v48h377l5-422 5-423-6-8-7-7-315 2-314 3-3 47-3 47-47 3-47 3-3 42-3 42-37 3-37 3v970l43 3 42 3v78l43 3 42 3 3 53 3 52h636l7-196zm718 144 3-53 43-3 42-3v-78l43-3 42-3 2-297 3-298h-91l3-42 3-43 40-5 40-5 3-187 2-188h-180v89l-42 3-43 3-5 45-5 45-37 3-38 3v89h-79l-3 43-3 42-87 3-87 3-4 47c-3 26-3-58-1-186l5-233-103 3-103 3v43c1 23 2 305 3 627l2 585h629l3-52zm-438-353 1-90 169-3 170-2 8 12c4 7 8 29 8 48v35l-174-3-175-3-4 48-4 48 1-90z"/></g></g></svg>